<?xml version="1.0" encoding="iso-8859-1"?>
<!-- Uploaded to: SVG Repo, www.svgrepo.com, Generator: SVG Repo Mixer Tools -->
<svg height="800px" width="800px" version="1.1" id="Layer_1" xmlns="http://www.w3.org/2000/svg" xmlns:xlink="http://www.w3.org/1999/xlink" 
	 viewBox="0 0 512 512" xml:space="preserve">
<circle style="fill:#273B7A;" cx="256" cy="256" r="256"/>
<path style="fill:#121149;" d="M397.181,170.698l-26.827,116.908l-15.589,17.889l-34.482-36.24l-8.766,10.809l-66.881-66.598
	l-28.625,82.941l-47.061-48.823l-38.712,63.835l-23.09,29.156l170.505,170.505c121.99-10.219,219.645-105.967,232.817-227.094
	L397.181,170.698z"/>
<path style="fill:#EAA22F;" d="M246.167,337.368c0,5.968-14.514,10.805-32.416,10.805s-32.416-4.837-32.416-10.805V216.757h64.833
	V337.368z"/>
<path style="fill:#E09112;" d="M213.621,216.757v131.415c0.043,0,0.086,0.002,0.129,0.002c17.903,0,32.416-4.837,32.416-10.805
	V216.757L213.621,216.757L213.621,216.757z"/>
<ellipse style="fill:#FFFFFF;" cx="213.747" cy="216.764" rx="32.416" ry="10.805"/>
<path style="fill:#FFC61B;" d="M399.408,337.368c0,5.968-14.514,10.805-32.416,10.805s-32.416-4.837-32.416-10.805V174.632h64.833
	V337.368z"/>
<path style="fill:#EAA22F;" d="M366.618,174.632v173.535c0.126,0,0.248,0.007,0.374,0.007c17.903,0,32.416-4.837,32.416-10.805
	V174.632L366.618,174.632L366.618,174.632z"/>
<ellipse style="fill:#FFFFFF;" cx="366.985" cy="174.632" rx="32.416" ry="10.805"/>
<path style="fill:#FEE187;" d="M366.992,163.826c-0.126,0-0.248,0.005-0.374,0.007v21.599c0.126,0,0.248,0.007,0.374,0.007
	c17.903,0,32.416-4.837,32.416-10.805C399.408,168.663,384.895,163.826,366.992,163.826z"/>
<path style="fill:#FF5419;" d="M321.805,337.368c0,5.968-14.514,10.805-32.416,10.805c-17.903,0-32.416-4.837-32.416-10.805v-64.833
	h64.833V337.368z"/>
<path style="fill:#C92F00;" d="M289.042,272.536v75.633c0.117,0,0.229,0.005,0.346,0.005c17.903,0,32.416-4.837,32.416-10.805
	v-64.833H289.042z"/>
<ellipse style="fill:#FFFFFF;" cx="289.392" cy="272.532" rx="32.416" ry="10.805"/>
<path style="fill:#FEE187;" d="M289.389,261.73c-0.117,0-0.229,0.005-0.346,0.005v21.599c0.117,0,0.229,0.005,0.346,0.005
	c17.903,0,32.416-4.837,32.416-10.805S307.291,261.73,289.389,261.73z"/>
<path style="fill:#FFC61B;" d="M170.529,337.368c0,5.968-14.514,10.805-32.416,10.805s-32.416-4.837-32.416-10.805v-86.444h64.833
	V337.368z"/>
<path style="fill:#EAA22F;" d="M137.769,250.925v97.244c0.116,0,0.228,0.005,0.343,0.005c17.903,0,32.416-4.837,32.416-10.805
	v-86.444H137.769z"/>
<ellipse style="fill:#FFFFFF;" cx="138.119" cy="250.932" rx="32.416" ry="10.805"/>
<g>
	<path style="fill:#FEE187;" d="M213.751,205.952c-0.043,0-0.086,0.002-0.129,0.002v21.606c0.043,0,0.086,0.002,0.129,0.002
		c17.903,0,32.416-4.837,32.416-10.805C246.167,210.789,231.653,205.952,213.751,205.952z"/>
	<path style="fill:#FEE187;" d="M138.112,240.119c-0.116,0-0.228,0.005-0.343,0.005v21.599c0.116,0,0.228,0.005,0.343,0.005
		c17.903,0,32.416-4.837,32.416-10.805C170.529,244.957,156.015,240.119,138.112,240.119z"/>
</g>
</svg>